<svg id="Layer_1" data-name="Layer 1" xmlns="http://www.w3.org/2000/svg" viewBox="0 0 366.11 525.05"><defs><style>.cls-1{font-size:22.19px;}.cls-1,.cls-2,.cls-3{fill:#2e3192;}.cls-1,.cls-3{font-family:CalSans-Regular, Cal Sans;}.cls-3{font-size:29.66px;letter-spacing:-0.01em;}.cls-4{letter-spacing:0.01em;}.cls-5{letter-spacing:0.03em;}.cls-6{letter-spacing:0.02em;}</style></defs><text class="cls-1" transform="translate(18.43 182.97) rotate(-68.58)">c</text><text class="cls-1" transform="matrix(0.44, -0.9, 0.9, 0.44, 22.88, 171.48)">o</text><text class="cls-1" transform="matrix(0.49, -0.87, 0.87, 0.49, 29.27, 158.54)">f</text><text class="cls-1" transform="translate(33.68 150.73) rotate(-57.98)">f</text><text class="cls-1" transform="translate(37.95 143.8) rotate(-54.49)">e</text><text class="cls-1" transform="translate(46.1 132.46) rotate(-49.99)">e</text><text class="cls-1" transform="matrix(0.68, -0.73, 0.73, 0.68, 55.24, 121.82)"> </text><text class="cls-1" transform="translate(58.55 118.13) rotate(-43.71)">a</text><text class="cls-1" transform="translate(69.51 107.76) rotate(-39.03)">n</text><text class="cls-1" transform="translate(80.4 98.99) rotate(-34.36)">d</text><text class="cls-1" transform="translate(93.01 90.58) rotate(-31.12)"> </text><text class="cls-1" transform="translate(97.25 87.95) rotate(-28.25)">c</text><text class="cls-1" transform="matrix(0.91, -0.41, 0.41, 0.91, 108.13, 82.1)">o</text><text class="cls-1" transform="translate(121.39 76.24) rotate(-19.45)">o</text><text class="cls-1" transform="matrix(0.97, -0.26, 0.26, 0.97, 135.2, 71.44)">k</text><text class="cls-1" transform="translate(148.65 68.01) rotate(-11.71)">i</text><text class="cls-1" transform="translate(154.8 66.66) rotate(-8.44)">e</text><text class="cls-1" transform="translate(168.52 64.72) rotate(-4.5)">s</text><path class="cls-2" d="M217.62,511.42c-5.86,0-11.38.11-16.9,0-7.08-.17-14.08-1-20.58-4-5.3-2.47-9.7-6.05-10.51-12.23-.75-5.67-.95-11.41-1.26-17.12a54.67,54.67,0,0,1-.06-9.74c.68-5.49-1.33-9.8-4.19-14.33-10.25-16.23-16.43-34.07-19.94-52.91a147,147,0,0,1-2.7-34.43c1.54-30.15,10.07-58.08,27.31-83.15,18.08-26.28,42-45.21,71.46-57.24a148.06,148.06,0,0,1,44.51-10.41c33.19-2.64,64.88,3,94,19.36,37.41,21.07,62,52.71,74.19,94a156.74,156.74,0,0,1,5.67,55.18,150.48,150.48,0,0,1-21.91,69.23,15.75,15.75,0,0,0-2.76,9.74,61.38,61.38,0,0,1-10.1,37.65c-7.07,11-17.77,16.54-30.3,19.15a66.32,66.32,0,0,1-23.58.89,3.9,3.9,0,0,0-2.58.76c-8.12,6-17.49,7.66-27.23,8-2.95.12-5.6.33-8.36,2-7.06,4.31-18.1,3.62-22.62-1.74-2.65-3.14-5.25-3.18-8.66-2.87-11.41,1-22.63-.38-33.77-2.9a8.25,8.25,0,0,0-5,.53c-8,3.86-16.3,6.08-25.14,4.76C226,528,219.39,521.88,217.62,511.42Zm112-19.81c6,2.64,10.34,6.71,12.23,13.1,1.85,6.21,1.18,12.31-1,19,4.51-.93,8.45-1.54,12.28-2.54,12.67-3.33,20.81-13.78,20.64-26.8-.22-16.22-4.63-31.51-11.19-46.22-2.52-5.66-5.38-11.16-9.94-15.57a2.56,2.56,0,0,0-3.49-.47,59.17,59.17,0,0,1-7.58,3.17c-13.21,4.51-26.86,5.27-40.66,4.35a14.85,14.85,0,0,1-5.64-1.76c-1.91-1-1.71-2.87.34-3.54a21.05,21.05,0,0,1,4.77-.7c9.77-.87,19.58-1.38,29.3-2.65,6.37-.82,12.69-2.47,18.07-6.43,7.12-5.23,8.55-11.9,3.69-18.72a38,38,0,0,0-15.53-13.14c-2.25-1-4.59-1.83-6.8-2.92-.6-.29-.86-1.26-1.28-1.92.6-.34,1.19-.95,1.79-.95a17.12,17.12,0,0,1,4.23.43c9.84,2.44,17.27,8.28,22.76,16.63a15.73,15.73,0,0,1,2.33,13.35c-.64,2.25-1.5,4.44-2.39,7,8.16-2,15.7-4.6,21.61-11.05a32.38,32.38,0,0,1-4.24-1.63,8.59,8.59,0,0,1-1.81-2,9.17,9.17,0,0,1,2-1.59c10.63-4.37,18.54-11.78,24.35-21.58.89-1.49.67-2.51-1.09-3-.91-.24-1.86-.36-2.77-.61a68.1,68.1,0,0,1-9-2.66c-1.18-.5-1.78-2.33-2.65-3.56,1.26-.41,2.49-.9,3.77-1.18.82-.18,1.79.17,2.56-.09a34.46,34.46,0,0,0,7-2.82c1.81-1.1,1.38-3.34-.6-3.93-7.33-2.2-11.29-7.78-14.31-14.22a5,5,0,0,1,.44-3.85c2.93-5.52,6.53-10.72,9-16.41,4.79-10.85,7.12-22.43,8.64-34.15,1.24-9.57,1.86-19.17.08-28.8-1.85-10-7-14-16.68-12.69a38.84,38.84,0,0,0-6.7,1.37,111.08,111.08,0,0,0-47.21,30c-2.29,2.41-4.3,2.68-7.3,2.05-6.12-1.29-12.33-2.12-18.5-3.16a4.05,4.05,0,0,1-2.07-.64c-5.88-5.92-13.5-8-21.29-9.46-3-.59-6.29-1.59-9.64.24A24.26,24.26,0,0,0,277.63,290c.68.57,1.39,1.93,1.14,2.55a3,3,0,0,1-2.48,1.41,53.73,53.73,0,0,1-5.43-1.34c-2.34-.49-4.75-1.29-7.08-1.13-5.07.34-9.36,2.95-13.49,5.73-14.19,9.52-23.83,22.88-31.51,37.82-4.3,8.37-8.29,16.9-12.59,25.27a15.91,15.91,0,0,1-9.75,8.27,17.55,17.55,0,0,0-2.88,1.54c2.09,3.22,4.67,4.71,8.22,4.76a7.91,7.91,0,0,1,2.65,1.07c-.57.81-1,2.09-1.75,2.37a64.62,64.62,0,0,1-9.23,2.71c-3.5.7-4.09,1.51-2.45,4.74,3.61,7.11,9.05,12.69,15.13,17.71a4,4,0,0,0,1.34.5c2.52-9.79,8.12-16.64,17.59-20,1.32-.46,3,.09,4.5.16a30.52,30.52,0,0,1-2.71,3.15c-3.41,3-7.21,5.66-10.3,9-4,4.23-6.59,9.07-1.66,14.56l-4.53.9c4.71,5.84,10.77,9.17,17.22,11.89,10.85,4.57,22.26,6.94,33.88,8.48.94.13,1.79.95,2.68,1.44-.8.71-1.56,1.95-2.42,2a92.38,92.38,0,0,1-10.78.34,71.47,71.47,0,0,1-7.5-.95c-2,7.48,1.82,17.67,7.93,21.88a25.25,25.25,0,0,1,1.46-4.89c.62-1.2,1.9-2.05,2.89-3.06.58,1.19,1.53,2.34,1.66,3.58.27,2.61.87,4.91,3.06,6.66,8.86-18.69,31.72-20.85,44.36-11.54,1.84,1.36,2.83,4.05,4.77,5s4.84.1,7,.93c3.7,1.46,5.64-.24,7.41-3a7.89,7.89,0,0,1,1.28-1.88A20.6,20.6,0,0,1,328,447c.39,1.23,1.3,2.56,1.08,3.66a42.4,42.4,0,0,1-2.36,6.37c10.92,6.7,11.93,16.53,8.59,27.91a24.06,24.06,0,0,0,12.44-5.1c4.33-3.57,6.37-8.37,7.86-13.59.34-1.16,1.67-2,2.55-3,.63,1.24,1.83,2.49,1.8,3.7a22.41,22.41,0,0,1-8.63,17C345.1,489.1,337.72,491.27,329.6,491.61Zm-94.69-19.28h.84c0-6.12-.05-12.23,0-18.34.06-5.16,0-7-6.95-8.45a146.47,146.47,0,0,0-18.38-2.12,103.83,103.83,0,0,0-29.84,2c-6.52,1.4-7.67,3-7.49,9.64.29,10.88.56,21.76,1.06,32.63.24,5.1.2,10.54,5.58,13.55a31.58,31.58,0,0,0,6.93,3.23c8.76,2.39,17.74,2.52,26.68,1.65,6.26-.61,12.54-2,17.4-6.34,1.9-1.71,3.78-4.44,4-6.84C235.25,486.1,234.91,479.2,234.91,472.33Zm69.58-18.14c-7.35-9-25.12-9.18-34.33-.73-10,9.14-9.84,27,1,36,9.45,7.82,24.27,7.52,32.58-1-4.46-1.77-7.14-5.25-7.31-9.76a59.58,59.58,0,0,1,1.32-14.4C298.64,460.35,300.55,456.59,304.49,454.19Zm-57.42,37.15c2.64,4.32,5.05,8.28,7.48,12.22a64.26,64.26,0,0,0,5.11,7.9c1.71,2,3.83,4.22,6.22,5,8.8,3,18,3.71,27.29,3.66,3.68,0,7.37,0,11.31,0-.89-11,1.21-20.55,9.28-28.31-3.05-1.11-5.11-.18-7.15,1.49-7.24,5.9-15.41,8.46-24.74,6.6-16.47-3.29-25.6-17.38-23.7-32.82.28-2.3-1.19-3.15-2.62-4.23,0,5.45.38,10.65-.1,15.77A16.19,16.19,0,0,1,247.07,491.34ZM208.36,344l.89-.16c2.46-5.07,6.38-9.84,2.71-16.09a10.51,10.51,0,0,1-1.12-3.81c-1.36-10.18-3.19-20.33-3.79-30.56-.41-7.06.71-14.24,1.53-21.32.5-4.29,3.48-5.95,7.67-4.86a19.72,19.72,0,0,1,3.44,1.33c6.2,2.91,10.93,7.66,15.14,12.85,3.2,3.94,5.82,8.35,8.64,12.45,5.48-3.26,11-6.52,16.72-9.91-3.8-3.05-7.69-6.21-11.63-9.31-9.87-7.76-20.29-14.41-32.82-17.1-7.27-1.55-12.17.88-14,8a68,68,0,0,0-2.31,14.9,194.65,194.65,0,0,0,4,46.31C204.68,332.5,206.7,338.18,208.36,344Zm220.15,97.31c-.48-9.92,2.22-18.3,6.35-26.4,3.4-6.66,1.27-11.54-5.83-14.17-22.77-8.43-38.19,12-38.86,27.53C404.86,426,417.13,431.19,428.51,441.26Zm-5,48.49c.46-1,1-2,1.34-3a58.56,58.56,0,0,0,3.4-20.72,8.57,8.57,0,0,0-1.24-4.22c-5.41-8.56-13.32-13.79-23-16.19-4.9-1.21-10-1.54-15.55-2.34.27,5.89.62,10.93.67,16,0,2.23,1,2.77,3,3.17,9.68,1.95,17.88,6.57,23.77,14.6C418.71,480.85,420.84,485.22,423.51,489.75Zm-49.47,25c.34.25.55.51.8.55a12.19,12.19,0,0,0,1.71.13,60.77,60.77,0,0,0,22.13-3.53c6.84-2.36,6.81-2.45,6.13-9.74a2.64,2.64,0,0,0,0-.29c-1.25-8.29-4.65-15.45-11.24-20.82-2.12-1.73-4.51-3.12-6.89-2.92-2,4.05-3.76,7.68-5.48,11.35a7.49,7.49,0,0,0-1,3.13A35.9,35.9,0,0,1,374,514.74ZM238.38,298.34a18.42,18.42,0,0,0-12.16-5.51c-3.12-.23-4.29,1.39-3,4.27.89,2,2.19,3.79,3.22,5.72,1.87,3.5,1.53,4.19-2.34,5-3.27.68-3.92,2.61-1.84,5.33a30.28,30.28,0,0,1,1.66,2.72Zm3.05,160.29c-.54,3.55-.8,6.45,1.94,9.22,2.46,2.49,2.13,9.54-.47,11.73-3.13,2.65-2.1,5.64-2.1,9.13,4-1.71,7.4-3.78,8.37-7.9a49.89,49.89,0,0,0,1.29-11C250.54,463.88,246.85,460.62,241.43,458.63Zm-43.64-19.78a5.23,5.23,0,0,0,1.39-7,35.86,35.86,0,0,0-2.77-4c-2.37-3.11-2.85-6.29-.57-9.69a28.23,28.23,0,0,0,1.66-3.69c-3.84.9-6.43,2.11-8.07,4.9-1.89,3.23-1.07,6.3.83,9.11C192.6,432,195.19,435.3,197.79,438.85Zm8.31-14.71c-.36,2.65-1.43,5.05-.72,6.67,1.11,2.52,2.69,4.68,1.05,7.77,4.75-1.51,5.81-5.28,3.13-8.58A50.59,50.59,0,0,1,206.1,424.14Zm102.59,50-.07-.3c-1.73.42-3.49.76-5.18,1.31-.37.12-.64,1-.67,1.52,0,.19.86.65,1.29.61,2.15-.23,4.31-.52,6.43-.92.48-.09.86-.74,1.28-1.13a5.87,5.87,0,0,0-1.38-1.05A5.35,5.35,0,0,0,308.69,474.14Zm3.42-8.37c-1.61-1.26-7.36-2-8.17-1.13-.36.38-.08,2.08,0,2.1C306.63,467,309.32,467.38,312.11,465.77Zm5.31,35.76c-2-.47-3.09.38-3.92,3.33-.16.56.21,1.27.33,1.91.58-.29,1.43-.44,1.69-.92A45.19,45.19,0,0,0,317.42,501.53Z" transform="translate(-115.61 -141.37)"/><path class="cls-2" d="M392.77,284.08c-1,18.49-3.77,35.27-11.73,50.82a37.65,37.65,0,0,1-2.84,4.62c-1.11,1.58-2.55,1.8-3.69.1-2.81-4.19-5.47-8.47-8.25-12.68-1.12-1.7.18-2.34,1.16-3.23a52.43,52.43,0,0,0,6.11-5.89,4.93,4.93,0,0,0,.45-4.24c-.3-.7-2.44-.61-3.75-.9-1-.22-2.32-.19-2.82-.81s0-1.95.39-2.76c1.55-2.94,3.4-5.73,4.88-8.7.62-1.24,1.27-3.58.72-4.05a6.43,6.43,0,0,0-4.47-1.09,23.09,23.09,0,0,0-13.8,6.73,53.29,53.29,0,0,1-4.89,4.38c-.71.53-1.88.47-2.84.67-.17-1-.78-2.17-.43-2.9a95.9,95.9,0,0,1,6.59-12.24c6.15-8.91,13.88-16.26,23.73-21a32.38,32.38,0,0,1,8.73-2.23c2.69-.45,4.43,1.13,4.92,3.67C391.75,276.65,392.3,281,392.77,284.08Z" transform="translate(-115.61 -141.37)"/><path class="cls-2" d="M271.35,405.3c-5.17,2.57-11,1.64-14.58-2.62-.74-.87-.47-2.61-.66-4,1.11.37,2.52.42,3.27,1.16,2.6,2.52,5.61,3,9,2.48,1.56-.26,2.07-1.2,1-2.37a24.06,24.06,0,0,0-3.9-3.27c-3.41-2.44-6.29-5.31-5.38-9.87a7.08,7.08,0,0,1,3.25-4.52c6.19-2.89,12.43-2.08,18.32,1.13,2.42,1.32,2.89,4.42,1.63,7.64-1.32,3.4-4.24,4.94-7.19,6.54-.86.47-2.07,1.52-2,2.18a5,5,0,0,0,1.81,3.21c3.79,2.62,9.07,2.18,13.33-.92,1.2-.88,2.33-2,3.66-.51s0,2.84-1.09,3.84C287.07,409.82,276.66,410.42,271.35,405.3Z" transform="translate(-115.61 -141.37)"/><path class="cls-2" d="M300.19,379.14c0-6.75,3.73-11.8,9.25-12.5a9.39,9.39,0,0,1,8.05,2.79c5.08,4.92,5.46,15.08.81,20.43-4.21,4.86-11.09,4.61-14.83-1-1.88-2.8-2.73-6.27-4.05-9.44Z" transform="translate(-115.61 -141.37)"/><path class="cls-2" d="M234,378.38c1.25-3.19,2.15-6.6,3.86-9.52,1.9-3.25,5-5.36,9.07-4.58,3.83.74,6.91,4.49,7.38,8.86a16.05,16.05,0,0,1-4.63,13.56c-2.52,2.55-5.55,4.26-9.22,2.91s-4.82-4.63-5.55-8.07a19.23,19.23,0,0,1-.16-2.85Z" transform="translate(-115.61 -141.37)"/><path class="cls-2" d="M314.44,347.82c4.7.43,8.14,1.88,10.77,4.86.53.61.38,1.81.54,2.74a10.26,10.26,0,0,1-2.8-.25c-2.59-1-5-2.38-7.67-3.19-1.09-.33-2.5.53-3.79.63a15.55,15.55,0,0,1-2.95-.26c.37-.89.49-2.19,1.15-2.57A31.74,31.74,0,0,1,314.44,347.82Z" transform="translate(-115.61 -141.37)"/><path class="cls-2" d="M246.24,345.5a57.64,57.64,0,0,1,5.44,3,2.32,2.32,0,0,1,.15,2.27,2.28,2.28,0,0,1-2.23.21c-3.94-2.78-7.09-.83-10.36,1.35-.91.61-2.26.58-3.4.84.35-1.16.36-2.64,1.1-3.43C239.31,347.25,242.38,346,246.24,345.5Z" transform="translate(-115.61 -141.37)"/><path class="cls-2" d="M205.42,459.06c-8.49-1-15.85-1.74-23.16-2.83-1.51-.22-2.82-1.75-4.22-2.67,1.39-.92,2.68-2.36,4.2-2.66,10.11-2,20.31-3.33,30.63-2.17,5.27.59,10.5,1.46,15.71,2.4,1,.19,1.9,1.31,2.84,2-.93.85-1.77,2.26-2.82,2.44C220.58,456.91,212.51,458,205.42,459.06Z" transform="translate(-115.61 -141.37)"/><path class="cls-2" d="M283.68,458.63a4.32,4.32,0,0,1-4.31,4c-2.33-.24-3.21-1.85-3.1-4a4,4,0,0,1,3.72-4C281.78,454.46,283.74,456.72,283.68,458.63Z" transform="translate(-115.61 -141.37)"/><path class="cls-2" d="M273.4,470.88c2.46.32,4.56,2.43,4.49,4.37s-1,3.3-3.1,3.43c-1.77.11-3.88-2-3.52-3.77C271.56,473.48,272.66,472.21,273.4,470.88Z" transform="translate(-115.61 -141.37)"/><path class="cls-2" d="M289,467.82c.45-2.73.78-4.61,3.21-4.63,1.93,0,3.33.91,3.53,3,.19,1.86-1.9,4.22-3.7,3.84C290.77,469.72,289.76,468.41,289,467.82Z" transform="translate(-115.61 -141.37)"/><path class="cls-2" d="M283.77,484c.47-.34,1.77-1.85,2.43-1.61a5,5,0,0,1,2.79,3,2.1,2.1,0,0,1-2.59,2.52C284.7,487.67,283.49,487,283.77,484Z" transform="translate(-115.61 -141.37)"/><path class="cls-2" d="M167.87,567.15h8.58a3.56,3.56,0,0,1,3.57,3.56V625a3.57,3.57,0,0,1-3.57,3.57h-8.58A3.57,3.57,0,0,1,164.3,625V570.71A3.56,3.56,0,0,1,167.87,567.15ZM222.28,604H213.7a3.56,3.56,0,0,1-3.56-3.57V579.28l5.24,3.49a1.33,1.33,0,0,0-.53.18l-39,17.49a3.58,3.58,0,0,1-4.71-1.79l-3.52-7.82a3.57,3.57,0,0,1,1.79-4.72l39-17.48c9.43-4.19,17.46.7,17.46,11.26v20.53A3.57,3.57,0,0,1,222.28,604Zm11.43,12.47V625a3.57,3.57,0,0,1-3.57,3.57h-1.59a18.41,18.41,0,0,1-18.41-18.41v-23a3.56,3.56,0,0,1,3.56-3.56h8.58a3.56,3.56,0,0,1,3.57,3.56v26.56a2.31,2.31,0,0,0,.09.69l-1.66-1.65a2.61,2.61,0,0,0,.7.08h5.16A3.57,3.57,0,0,1,233.71,616.46Z" transform="translate(-115.61 -141.37)"/><path class="cls-2" d="M236.27,580.42v-9.71a3.56,3.56,0,0,1,3.56-3.56h54.42a3.56,3.56,0,0,1,3.57,3.56v8.58a3.57,3.57,0,0,1-3.57,3.57H260.42c-4.56,0-4.86,6.88-.31,7.12.47,0,1,0,1.48,0h32.66a3.57,3.57,0,0,1,3.57,3.57v8.58a3.56,3.56,0,0,1-3.57,3.56H266C249.54,605.73,236.27,596.13,236.27,580.42Zm61.55,13.26v8.57a3.57,3.57,0,0,1-3.57,3.57H261.59c-.52,0-1,0-1.48,0-4.55.24-4.25,7.12.31,7.12h33.83a3.57,3.57,0,0,1,3.57,3.57v8.58a3.57,3.57,0,0,1-3.57,3.57H239.83a3.56,3.56,0,0,1-3.56-3.57v-9.71c0-15.71,13.27-25.31,29.68-25.31h28.3A3.57,3.57,0,0,1,297.82,593.68Z" transform="translate(-115.61 -141.37)"/><path class="cls-2" d="M358.41,570.71v8.58a3.57,3.57,0,0,1-3.57,3.57H330.37a3.57,3.57,0,0,0-3.57,3.57v27.34c0,8.9-5.67,14.84-14.84,14.84H306.8a3.57,3.57,0,0,1-3.57-3.57v-8.58a3.57,3.57,0,0,1,3.57-3.57H312a2.61,2.61,0,0,0,.7-.08L311,614.46a2.31,2.31,0,0,0,.09-.69V570.71a3.56,3.56,0,0,1,3.56-3.56h40.19A3.56,3.56,0,0,1,358.41,570.71Zm-55.18,8.58v-8.58a3.56,3.56,0,0,1,3.57-3.56H361a3.56,3.56,0,0,1,3.57,3.56v8.58a3.57,3.57,0,0,1-3.57,3.57H306.8A3.57,3.57,0,0,1,303.23,579.29Zm10.21,22.88v-8.58A3.57,3.57,0,0,1,317,590h35.3a3.56,3.56,0,0,1,3.56,3.57v8.58a3.56,3.56,0,0,1-3.56,3.56H317A3.56,3.56,0,0,1,313.44,602.17Z" transform="translate(-115.61 -141.37)"/><path class="cls-2" d="M427.83,628.61h-8.58a3.57,3.57,0,0,1-3.57-3.57V586.43a3.57,3.57,0,0,0-3.57-3.57h-23a3.57,3.57,0,0,0-3.57,3.57v22.9a3.56,3.56,0,0,0,3.57,3.56h38.7a3.57,3.57,0,0,1,3.57,3.57V625a3.57,3.57,0,0,1-3.57,3.57H373.41a3.56,3.56,0,0,1-3.56-3.57V570.71a3.56,3.56,0,0,1,3.56-3.56h54.42a3.56,3.56,0,0,1,3.57,3.56V625A3.57,3.57,0,0,1,427.83,628.61Zm-31.46-69.32H405a3.57,3.57,0,0,1,3.57,3.57v16.43a3.57,3.57,0,0,1-3.57,3.57h-8.58a3.56,3.56,0,0,1-3.56-3.57V562.86A3.56,3.56,0,0,1,396.37,559.29Z" transform="translate(-115.61 -141.37)"/><rect class="cls-2" x="120.66" y="404.32" width="128.25" height="15.72" rx="1.42"/><text class="cls-3" transform="translate(155.25 518.49)">c<tspan class="cls-4" x="15.12" y="0">o</tspan><tspan class="cls-5" x="32.95" y="0">f</tspan><tspan class="cls-6" x="43.42" y="0">f</tspan></text></svg>